<svg id="e9C1jqYF34T1" xmlns="http://www.w3.org/2000/svg" xmlns:xlink="http://www.w3.org/1999/xlink" viewBox="0 0 300 300" shape-rendering="geometricPrecision" text-rendering="geometricPrecision"><path d="M100.312703,99.877922h99.604106c34.14998-.461487,34.14998,12.998528,34.14998,25.53557c0,24.971079-64.146583,74.376193-84.066789,74.376193-20.075265,0-85.067906-49.405114-85.067906-74.376193c0-13.306186.461486-25.53557,35.380609-25.53557Z" transform="translate(0-.384571)" fill="#fff" stroke="#252525" stroke-width="0.6"/><path d="M100.312703,99.877922h99.604106c34.14998-.461487,34.14998,12.998528,34.14998,25.53557c0,24.971079-64.146583,74.376193-84.066789,74.376193-20.075265,0-85.067906-49.405114-85.067906-74.376193c0-13.306186.461486-25.53557,35.380609-25.53557Z" transform="matrix(.941886 0 0 0.941884 8.721534 8.322921)" fill="#acacac" stroke="#303030" stroke-width="0.6"/><path d="M150.00443,125.028921c-13.056864,0-24.409892,0-24.409892,7.082466c0,5.676514,3.948879,17.888613,23.904903,27.88896c20.766793-10.000345,26.196502-22.459251,26.196502-27.88896c0-7.082466-11.846638-7.082466-25.691513-7.082466Z" transform="translate(.000004 0)" fill="#fff" stroke="#000" stroke-width="0.6"/><path d="M150.00443,125.028921c-13.056864,0-24.409892,0-24.409892,7.082466c0,5.676514,3.948879,17.888613,23.904903,27.88896c20.766793-10.000345,26.196502-22.459251,26.196502-27.88896c0-7.082466-11.846638-7.082466-25.691513-7.082466Z" transform="matrix(.911174 0 0 0.911174 13.337373 12.555177)" fill="#acacac" stroke="#000" stroke-width="0.6"/></svg>
